<?xml version="1.0" standalone="no"?><!DOCTYPE svg PUBLIC "-//W3C//DTD SVG 1.1//EN" "http://www.w3.org/Graphics/SVG/1.1/DTD/svg11.dtd"><svg t="1772182139502" class="icon" viewBox="0 0 1024 1024" version="1.1" xmlns="http://www.w3.org/2000/svg" p-id="11099" xmlns:xlink="http://www.w3.org/1999/xlink" width="200" height="200"><path d="M330.016 56v548.024l514.016-0.844V56z m0 0" fill="#FFE781" p-id="11100"></path><path d="M982.21 434.328c-25.21-21.25-62.828-18.14-84.202 7.086-22.32 23.086-98.688 102.04-135.984 140.61h0.148c-7.406-25.43-30.89-44.008-58.704-44.008H472.14c-4 0-7.898-0.836-11.624-2.336-41.798-17.04-85.836-21.28-130.5-14.82-80.64 11.72-147.648 59.436-179.688 139.726l177.266 177.68 29.54-28.516a113.214 113.214 0 0 1 78.56-31.726h264a159.234 159.234 0 0 0 111.102-45.14l178.5-214.352c21.298-25.196 18.126-62.9-7.086-84.204z m0 0" fill="#FED2A4" p-id="11101"></path><path d="M307.992 906.312l-61.42 61.422L20 741.468l61.726-61.42c28.336-28.368 74.65-28.782 103.422 0l122.844 122.842c28.476 28.414 28.688 74.766 0 103.422z m0 0" fill="#E87288" p-id="11102"></path><path d="M461.242 668.742c7.798-7.82 7.798-20.476 0-28.296-7.82-7.806-20.484-7.806-28.304 0-7.798 7.82-7.798 20.476 0 28.296 7.82 7.804 20.484 7.804 28.304 0z m0 0M468.016 198.008v38.242c0 64.336 49.96 118.594 114.226 121.626 68.78 3.25 125.78-51.782 125.78-119.868v-40c12.024 0 21.564-10.6 19.79-22.968-1.42-9.922-10.382-17.032-20.406-17.032h-38.758c-10.024 0-18.984 7.11-20.406 17.032-1.78 12.366 7.766 22.968 19.78 22.968v38.546c0 41.406-33.71 78.814-75.038 81.306-46.43 2.804-84.96-34.016-84.96-79.852v-40c12.016 0 21.562-10.6 19.78-22.968-1.42-9.922-10.382-17.032-20.406-17.032H468.64c-10.022 0-18.984 7.11-20.406 17.032-1.78 12.366 7.766 22.968 19.78 22.968z m0 0" p-id="11103"></path><path d="M232.438 981.882a19.956 19.956 0 0 0 14.132 5.852 19.922 19.922 0 0 0 14.14-5.86l61.416-61.414c20.006-19.984 29.64-47.374 26.86-75.046l22.03-21.266c17.468-16.844 40.444-26.124 64.68-26.124h263.328c47.18 0 91.766-18.118 125.54-51.016 0.5-0.484 0.968-0.992 1.42-1.524l179.172-215.156c28.46-33.688 24.212-84.266-9.508-112.766-33.508-28.24-83.702-24.172-112.258 8.946l-19.36 20.016V56c0-11.046-8.952-20-20-20H330.018c-11.048 0-20 8.954-20 20v448.1c-77.46 16.26-138.89 64.338-171.976 134.62-26.086-1.352-51.54 8.24-70.422 27.148L5.914 727.266c-1.36 1.36-2.594 2.86-3.492 4.562-4.368 8.29-2.586 17.766 3.446 23.79zM824.032 76v411.89l-57.876 59.836c-14.906-18.304-37.61-29.71-62.132-29.71H472.14c-1.288 0-2.68-0.298-4.07-0.86-31.164-12.696-64.148-19.14-98.054-19.14-6.688 0-13.368 0.24-20 0.68V76zM333.374 540.656c40.462-5.86 80.922-2.42 120.166 13.57 6.24 2.516 12.664 3.798 19.1 3.798h231.884c21.686 0 40.008 17.686 40.008 40 0 22.054-17.946 40-40.008 40h-174c-11.048 0-20 8.952-20 20 0 11.046 8.952 20 20 20h174c44.116 0 80.008-35.892 80.008-80 0-3.532-0.26-7.032-0.72-10.492 4.172-4.282 125.062-129.314 129.26-133.65 0.304-0.32 0.6-0.648 0.88-0.984 14.252-16.82 39.556-18.952 56.392-4.766 16.852 14.242 18.984 39.54 4.656 56.492l-178.57 214.43c-26.18 25.14-60.548 38.97-96.906 38.97H436.196c-34.64 0-67.47 13.258-92.454 37.336l-8.828 8.522a93.164 93.164 0 0 0-12.28-15.14L199.788 665.9a93.45 93.45 0 0 0-22.064-16.32c30.556-60.266 85.14-98.68 155.648-108.92z m-237 153.524c21.024-21.04 54.602-20.524 75.134 0.008l122.86 122.86c20.586 20.546 20.952 54.18-0.016 75.124L247.06 939.46l-198.226-197.968z m0 0" p-id="11104"></path></svg>