<?xml version="1.0" standalone="no"?><!DOCTYPE svg PUBLIC "-//W3C//DTD SVG 1.1//EN" "http://www.w3.org/Graphics/SVG/1.1/DTD/svg11.dtd"><svg t="1772183006345" class="icon" viewBox="0 0 1024 1024" version="1.1" xmlns="http://www.w3.org/2000/svg" p-id="18011" xmlns:xlink="http://www.w3.org/1999/xlink" width="200" height="200"><path d="M562.05541667 611.13729167c4.903125 2.964375 10.2628125 4.903125 15.1659375 4.903125 5.3596875 0 10.2628125-1.4821875 15.6225-4.903125l1.025625-0.4565625C626.13916667 588.67385417 791.13822917 472.47916667 854.65104167 356.28541667c17.5603125-27.365625 26.9109375-58.153125 26.9109375-89.3971875 0-91.336875-74.2321875-165.568125-165.568125-165.568125-65.4525 0-112.77375 51.3121875-137.746875 80.0475-23.4890625-26.9109375-72.7490625-80.0475-137.745-80.0475-91.3359375 0-165.568125 74.23125-165.568125 165.568125 0 32.2696875 9.23625 62.94375 26.34 89.3971875 68.416875 128.3953125 258.84375 253.940625 260.7815625 254.8528125z m152.911875-454.629375c60.5484375 0 109.921875 49.374375 109.921875 109.9228125 0 21.4378125-5.814375 41.9625-17.559375 59.5228125-0.4565625 0.455625-0.4565625 1.0265625-1.0265625 1.4821875l-0.455625 0.4565625c-48.804375 90.8803125-173.893125 186.549375-228.511875 225.5465625-54.733125-39.1115625-180.1640625-135.2371875-228.511875-225.5465625l-0.455625-1.0265625c0-0.4565625-0.4565625-1.0265625-1.0265625-1.4821875-11.175-17.5603125-17.5603125-38.5415625-17.5603125-59.521875 0-60.09375 49.374375-109.35375 109.921875-109.35375 43.90125 0 81.075 43.4446875 101.0296875 66.9346875 12.65625 15.1659375 21.436875 24.8578125 36.6028125 24.8578125s23.49-9.80625 36.6028125-24.4021875c19.9546875-23.945625 57.0140625-67.3903125 101.02875-67.3903125z" fill="#d81e06" p-id="18012"></path><path d="M856.01979167 597.45354167c-10.2628125-5.8153125-20.98125-8.7796875-31.2440625-8.7796875-30.7875 0-54.733125 24.40125-64.9959375 35.120625-27.365625 28.27875-60.5484375 56.671875-75.714375 69.328125-6.3853125-2.394375-13.6828125-3.8765625-22.4625-4.4465625-51.313125-2.964375-132.84375-12.200625-151.88625-23.945625-21.436875-12.6571875-38.540625-24.85875-53.7065625-36.1471875l-2.394375-1.93875c-45.3834375-32.26875-81.0740625-58.153125-169.445625-58.153125-24.8578125 0-46.865625 6.384375-70.81125 13.6828125l-2.394375 1.025625c-20.98125 6.38625-41.0503125 12.6571875-64.425 12.6571875-30.331875 0-55.190625 24.85875-55.190625 55.190625v128.394375c0 30.331875 24.85875 55.1896875 55.190625 55.1896875 55.18875 0 123.49125 2.964375 138.200625 7.2975 29.761875 9.80625 101.02875 51.76875 123.4921875 65.908125l1.0265625 1.0265625h0.455625c9.23625 4.903125 20.0690625 7.8675 30.7875 7.8675h233.415c26.9109375 0 55.6453125-23.945625 65.908125-41.049375 12.200625-20.0690625 45.9534375-68.416875 136.26375-183.585 2.964375-3.8775 4.903125-6.3853125 4.903125-6.3853125 0-0.4565625 0.455625-0.4565625 0.455625-1.0265625 0.4565625-1.0265625 1.4821875-1.93875 1.93875-3.4209375 15.1659375-29.0775 3.4209375-65.6803125-27.3665625-83.810625zM659.77760417 763.47916667l-174.804375 9.23625c-12.6571875-0.4565625-48.3478125-25.884375-65.4525-38.085-2.964375-1.93875-5.35875-3.8775-8.3240625-5.8153125-2.964375-1.93875-5.35875-3.8775-8.323125-5.81625-14.1403125-10.261875-24.85875-16.648125-33.6384375-20.98125-3.8775-1.9378125-7.8684375-2.964375-12.2015625-2.964375-10.261875 0-20.068125 5.8153125-24.8578125 15.1659375-6.841875 13.2271875-1.4821875 30.3309375 12.200625 37.629375 9.2371875 4.4465625 20.98125 12.65625 33.6384375 21.436875 3.421875 2.394375 6.38625 4.4475 9.80625 6.841875l1.483125 1.0265625c34.6640625 24.40125 67.3903125 47.32125 96.695625 47.32125l174.69-9.350625c35.120625-0.455625 63.969375-29.3053125 63.969375-64.425 0-6.38625-1.025625-13.228125-2.964375-19.5 21.436875-17.559375 52.224375-44.9259375 77.653125-71.266875 11.745-12.200625 19.498125-18.0159375 24.8578125-18.0159375 1.0265625 0 2.394375 0.455625 3.4209375 1.025625 3.8765625 2.3953125 7.2975 6.841875 6.3853125 11.175-8.7796875 11.175-111.290625 141.166875-143.1046875 192.9346875-2.964375 4.903125-14.5959375 13.228125-18.0159375 13.68375H439.58979167c-1.48125 0-2.964375-0.455625-3.8765625-1.0265625l-0.4565625-0.455625c-28.27875-17.5603125-98.1778125-59.06625-133.7540625-70.81125-30.331875-9.80625-133.755-10.2628125-155.30625-10.7184375V654.12541667c33.6375 0 62.0315625-9.23625 83.0128125-15.6215625 19.498125-6.3853125 36.14625-11.745 54.163125-11.745 71.266875 0 96.695625 18.0159375 138.2015625 48.3478125l2.394375 1.93875c15.6215625 11.175 33.6375 24.40125 56.101875 38.085 10.7184375 6.841875 28.27875 12.200625 55.1896875 17.559375 46.865625 9.2371875 102.5109375 12.658125 121.096875 13.68375h2.9653125c2.28 0 4.5609375 0.913125 6.271875 2.50875 1.595625 1.5965625 2.6221875 3.8775 2.5078125 6.271875 0.4565625 4.4475-3.4209375 8.3240625-8.3240625 8.3240625z" fill="#d81e06" p-id="18013"></path><path d="M416.89854167 124.35260417c-14.4815625 3.534375-84.1528125 21.7790625-101.143125 75.144375-6.271875 19.498125-2.5078125 37.970625 5.131875 74.0034375 10.7184375 50.4 18.358125 86.6615625 44.128125 124.8609375 16.648125 24.7434375 48.0065625 48.69 110.7215625 96.58125 1.254375 1.0265625 29.98875 22.805625 71.1534375 47.435625 25.655625 15.39375 38.655 23.034375 49.145625 24.2878125 29.41875 3.4209375 54.50625-20.866875 103.423125-77.424375 97.6078125-112.888125 121.66875-159.75375 136.719375-198.864375 14.4815625-37.629375 19.726875-65.79375 7.2975-89.8546875-9.9196875-19.2703125-27.70875-29.533125-45.1546875-39.5671875-12.315-7.0696875-44.5846875-25.5421875-82.55625-24.8578125-74.46 1.36875-119.956875 75.8278125-123.15 81.4153125m87.57375 507.538125l10.1484375 49.715625-40.708125 15.8503125s-134.4384375-4.5609375-144.70125 0c-10.1484375 4.5609375-83.581875-31.6996875-88.14375-37.2871875-4.5609375-5.701875-35.00625-44.128125-35.00625-44.128125l-36.1471875 21.436875-16.989375-11.289375s-69.556875 28.621875-22.0078125 74.574375c47.435625 45.9534375-150.85875 15.8503125-150.85875 15.8503125l-37.2871875-61.005 13.569375-111.8615625s28.27875-16.9903125 53.1375-20.296875 123.15-19.156875 143.5603125-15.8503125 90.4246875 38.428125 96.01125 46.295625c5.701875 7.981875 255.421875 77.9953125 255.421875 77.9953125z" fill="#d81e06" p-id="18014"></path><path d="M729.90447917 705.89416667l87.00375-67.846875s24.8578125-7.8675 25.9978125 0 0 23.604375 0 32.15625-118.5890625 173.55-118.5890625 173.55-37.28625 38.428125-41.848125 38.428125h-72.2934375c-10.1484375 0-176.2875 0-185.295-6.7284375s-68.986875-38.4271875-73.434375-40.708125c-4.5609375-2.28-53.25-48.9178125-63.399375-49.9434375s-23.6034375-24.85875-23.6034375-26.454375c0-1.5965625-7.8675-23.1478125 6.7275-31.01625 14.709375-7.8675 65.5659375-33.86625 68.986875-33.86625s389.746875 12.429375 389.746875 12.429375z" fill="#d81e06" p-id="18015"></path><path d="M685.54760417 695.06135417s7.411875 50.62875-95.44125 43.786875-162.6028125-36.0328125-189.7415625-53.023125c-27.13875-16.9903125-70.1278125 28.27875-27.13875 53.7075s235.125 110.150625 314.146875 48.005625c76.17-59.865 79.0209375-109.010625 54.9609375-139.798125-1.5965625-1.93875-3.4209375-3.4209375-6.4996875-0.79875l-59.521875 43.90125 9.2353125 4.21875z" fill="#d81e06" p-id="18016"></path></svg>