<?xml version="1.0" standalone="no"?><!DOCTYPE svg PUBLIC "-//W3C//DTD SVG 1.1//EN" "http://www.w3.org/Graphics/SVG/1.1/DTD/svg11.dtd"><svg t="1772182882375" class="icon" viewBox="0 0 1024 1024" version="1.1" xmlns="http://www.w3.org/2000/svg" p-id="16985" xmlns:xlink="http://www.w3.org/1999/xlink" width="200" height="200"><path d="M869.461333 44.373333a10.666667 10.666667 0 0 0-11.008 0.597334c-1.194667 0.768-112.085333 76.202667-185.386666 76.202666-4.266667 0-8.362667-0.256-12.202667-0.810666-29.610667-4.138667-52.906667-14.208-77.653333-24.832-35.328-15.36-71.893333-31.146667-129.194667-31.146667-4.394667 0.042667-8.746667 0.170667-13.141333 0.341333a749.226667 749.226667 0 0 0-190.976 34.645334l-12.8-13.866667a10.666667 10.666667 0 0 0-11.946667-2.56l-47.146667 19.541333a10.666667 10.666667 0 0 0-6.272 12.501334L398.506667 995.797333a10.666667 10.666667 0 0 0 17.792 5.034667l54.570666-53.376a10.666667 10.666667 0 0 0 2.986667-9.941333c-0.512-2.261333-48.213333-226.773333-51.114667-277.418667-1.578667-26.752 9.045333-54.314667 29.141334-75.605333 21.632-22.954667 65.152-50.346667 149.418666-50.346667a436.053333 436.053333 0 0 0 130.176-18.346667 299.52 299.52 0 0 0 83.968-40.874666c41.941333-29.696 57.813333-59.690667 58.581334-60.928a10.709333 10.709333 0 0 0 1.194666-4.992V53.76a10.666667 10.666667 0 0 0-5.717333-9.472z" fill="#DD2424" p-id="16986"></path></svg>