<?xml version="1.0" standalone="no"?><!DOCTYPE svg PUBLIC "-//W3C//DTD SVG 1.1//EN" "http://www.w3.org/Graphics/SVG/1.1/DTD/svg11.dtd"><svg t="1772182065731" class="icon" viewBox="0 0 1024 1024" version="1.1" xmlns="http://www.w3.org/2000/svg" p-id="1848" xmlns:xlink="http://www.w3.org/1999/xlink" width="200" height="200"><path d="M555.472 195.76c26.96 0 53.12 5.28 77.76 15.68a198.8 198.8 0 0 1 63.52 42.72 197.616 197.616 0 0 1 58.56 140.72v276.728l54.336-20.304a41.496 41.496 0 0 1 37.12 3.808l1.68 1.152a43.08 43.08 0 0 1 18.08 35.04c0 13.68-6.32 26-17.36 33.92l-216.64 159.44c-13.6 10.24-28.8 18.08-45.2 23.44-16.16 5.28-33.04 7.92-50.24 7.92-11.12 0-23.52-1.28-36.8-3.76l-0.64-0.16-184.288-44.632v14.672c0 7.04-3.84 13.68-10.64 18.08a33.36 33.36 0 0 1-15.872 5.136l-2.128 0.064h-46.88c-6.96 0-13.6-1.92-18.64-5.36-5.944-4.008-9.544-9.952-10.024-16.416l-0.056-1.504v-247.2c0-12.352 12-22.552 27.096-23.24l1.624-0.04h46.88c13.056 0 27.6 8.952 28.584 21.88l0.056 1.4v16.28h40.272V394.88c0-25.224 4.68-49.808 13.904-73.088l1.776-4.352c10.08-23.68 24.48-44.96 42.8-63.28 18.4-18.32 39.76-32.64 63.52-42.72 24.64-10.4 50.88-15.68 77.84-15.68z m278.896 480.024c-4.48-3.36-10.8-4.16-16.16-2.08l-0.08 0.08-132.36 49.44a47.264 47.264 0 0 1-13.184 38.8c-8.88 9.12-20.48 14.08-32.88 14.16l-110.64 3.52c-18.56 0.64-35.44 5.36-50.16 13.92l-0.24 0.08-19.04 10.64-11.68-20.96 18.96-10.56c18.16-10.56 38.8-16.32 61.28-17.12h0.08l111.28-3.52c12.24 0 22.56-10.64 22.56-23.28 0-12.88-10.48-23.36-23.28-23.36h-127.12c-17.12 0-33.52-2.56-48.8-7.6l-56-16.32c-13.04-4.32-26.56-6.4-41.36-6.4H315.36v167.592l189.648 45.92c10.24 1.92 20.16 3.024 28.88 3.248l3.2 0.04c29.44 0 58.24-9.44 81.12-26.56l0.08-0.08 216.96-159.68c4.64-3.28 7.28-8.56 7.28-14.4 0-6.16-2.96-11.92-8-15.44zM286.72 635.664h-46.88c-2.24 0-3.84 0.64-4.72 1.12v243.68c0.8 0.4 2.4 0.96 4.72 0.96h46.88c2 0 3.68-0.64 4.64-1.2v-243.12a8.4 8.4 0 0 0-4.64-1.44z m444.592-14.824h-351.68l0.008 30.96c10.648 0.88 20.816 2.8 30.76 5.8l3.872 1.224 56 16.32c12.64 4.16 26.96 6.4 41.44 6.4h127.12c15.616 0 29.48 7.632 38.096 19.36l54.384-20.328v-59.736zM555.472 219.76c-96.96 0-175.84 78.56-175.84 175.12v201.96h351.68V394.88c0-95.6-77.304-173.544-172.936-175.096z m-0.032 72.08c5.872 0 10.68 4.464 11.232 10.192l0.048 1.088v26.88h32.48a11.232 11.232 0 0 1 1.072 22.432l-1.072 0.048h-53.52c-12.48 0-22.72 10.16-22.72 22.72a22.736 22.736 0 0 0 21.344 22.6l1.376 0.04h19.6c24.88 0 45.2 20.32 45.2 45.2 0 23.88-18.576 43.424-42 45.104l-1.76 0.096v32.8l-1.36-0.56c-1.92 3.52-5.6 5.92-9.92 5.92a11.24 11.24 0 0 1-11.152-10.192l-0.048-1.088v-26.88h-32.48a11.24 11.24 0 1 1-1.088-22.432l1.088-0.048h53.52c12.48 0 22.64-10.24 22.64-22.72a22.752 22.752 0 0 0-21.264-22.68l-1.376-0.04h-19.6c-24.96 0-45.2-20.24-45.2-45.12 0-23.88 18.576-43.424 42-45.104l1.76-0.096v-26.88c0-6.24 5.04-11.28 11.2-11.28z" fill="#1A2035" p-id="1849"></path><path d="M230.64 591.944c9.84 0 18.32 8.48 18.32 18.32v303.68c0 9.84-8.48 18.32-18.32 18.32h-52.32c-9.84 0-18.32-8.48-18.32-18.32v-303.68c0-9.84 8.48-18.32 18.32-18.32zM452.44 126.08c-54.08-6.56 40.24-71.6 103.04-15.36 91.28-57.68 146.08 13.12 104.48 16.08-37.28 2.96-54.08 27.76-68 55.52-25.52-3.68-49.68-3.68-73.04 0-13.12-32.16-33.6-52.56-66.48-56.24z" fill="#2554FE" p-id="1850"></path></svg>