<?xml version="1.0" standalone="no"?><!DOCTYPE svg PUBLIC "-//W3C//DTD SVG 1.1//EN" "http://www.w3.org/Graphics/SVG/1.1/DTD/svg11.dtd"><svg t="1774159925143" class="icon" viewBox="0 0 1024 1024" version="1.1" xmlns="http://www.w3.org/2000/svg" p-id="6491" xmlns:xlink="http://www.w3.org/1999/xlink" width="200" height="200"><path d="M599.478857 647.314286a57.929143 57.929143 0 0 1-29.403428-8.850286 1177.453714 1177.453714 0 0 1-110.226286-82.944c-77.677714-65.316571-132.461714-127.268571-162.962286-183.881143a192.438857 192.438857 0 0 1-30.427428-104.082286A194.852571 194.852571 0 0 1 461.238857 73.142857c34.304 0 68.315429 11.849143 101.302857 35.328 14.409143 10.24 27.062857 21.577143 37.814857 32.402286C628.955429 111.762286 677.010286 73.142857 739.693714 73.142857a194.852571 194.852571 0 0 1 194.852572 194.413714c0 36.352-10.752 72.411429-31.012572 104.155429-28.745143 52.224-78.994286 109.714286-149.211428 170.715429-54.125714 47.030857-103.789714 81.92-122.587429 94.72a27.355429 27.355429 0 0 1-3.072 1.755428 55.149714 55.149714 0 0 1-29.184 8.411429z m-1.097143-55.734857a14.628571 14.628571 0 0 0 1.462857 0.731428 27.794286 27.794286 0 0 1 2.413715-1.462857c35.035429-23.844571 193.316571-136.045714 253.586285-246.198857a139.337143 139.337143 0 0 0 23.771429-77.092572c0-77.019429-62.756571-139.702857-139.922286-139.702857-50.249143 0-89.673143 38.180571-118.491428 71.387429a27.428571 27.428571 0 0 1-20.626286 9.508571H600.502857a27.428571 27.428571 0 0 1-20.699428-9.435428c-26.770286-30.646857-68.242286-71.387429-118.491429-71.387429a139.995429 139.995429 0 0 0-139.995429 139.702857 137.874286 137.874286 0 0 0 23.405715 77.238857c26.331429 49.298286 77.238857 106.788571 147.309714 166.107429a1188.937143 1188.937143 0 0 0 106.349714 80.603429zM697.270857 950.857143H461.238857c-13.750857 0-27.794286-3.291429-40.667428-9.435429a27.428571 27.428571 0 0 1-8.777143-5.12c-25.746286-16.018286-90.258286-53.394286-116.077715-62.025143-11.264-2.925714-70.802286-6.217143-131.657142-6.217142-45.933714 0-83.236571-37.302857-83.236572-83.090286V655.433143c0-45.860571 37.302857-83.090286 83.236572-83.090286 18.724571 0 35.401143-5.12 54.784-10.898286l1.316571-0.365714 1.316571-0.585143a28.086857 28.086857 0 0 1 2.194286-0.731428c26.843429-8.192 51.346286-14.994286 79.579429-14.994286 44.324571 0 79.725714 5.997714 111.542857 18.797714 28.745143 11.702857 50.980571 27.355429 74.459428 43.958857l1.243429 0.877715a28.379429 28.379429 0 0 1 1.243429 0.950857l2.048 1.682286a574.171429 574.171429 0 0 0 51.931428 34.816c0.731429 0.365714 11.117714 5.632 55.442286 11.849142 26.038857 3.657143 57.929143 6.729143 85.357714 8.338286 5.046857 0.292571 9.801143 0.731429 14.336 1.609143 25.088-21.430857 46.811429-41.618286 63.561143-58.806857 10.459429-10.971429 42.057143-43.885714 85.430857-43.885714 15.213714 0 30.866286 4.315429 45.202286 12.434285l0.292571 0.219429c20.772571 12.141714 36.205714 31.085714 43.373715 53.248a87.405714 87.405714 0 0 1-10.678858 76.653714 264.265143 264.265143 0 0 0-4.754285 6.144c-95.232 121.197714-126.025143 166.4-135.899429 182.637714-13.677714 22.674286-50.688 54.564571-90.112 54.564572z m-253.220571-58.953143a40.009143 40.009143 0 0 0 17.188571 4.169143h236.032c15.213714 0 36.352-16.822857 43.154286-28.086857l0.073143-0.146286c18.285714-29.988571 66.56-94.939429 139.410285-187.684571l3.584-4.754286a34.742857 34.742857 0 0 1 0.950858-1.536l0.292571-0.512c8.630857-16.822857 1.316571-37.595429-17.042286-48.493714a36.790857 36.790857 0 0 0-17.846857-5.12c-20.041143 0-38.765714 19.602286-45.860571 26.989714l-0.073143 0.073143c-17.554286 18.139429-40.155429 39.058286-65.974857 61.220571 1.974857 8.923429 2.56 19.748571 0.804571 32.914286a63.780571 63.780571 0 0 1-49.956571 54.564571 27.428571 27.428571 0 0 1-4.388572 0.585143l-176.786285 9.362286h-2.486858c-15.725714-0.585143-36.132571-11.556571-80.676571-43.300572a155.136 155.136 0 0 1-4.754286-3.291428c-1.170286-0.877714-2.194286-1.682286-3.291428-2.340572l-5.12-3.584a102.692571 102.692571 0 0 0-4.096-2.925714 221.330286 221.330286 0 0 0-30.281143-18.870857h-0.146286a27.428571 27.428571 0 0 1 0.073143-54.857143c8.704 0 16.749714 1.974857 24.649143 5.851429 11.556571 5.851429 23.771429 13.385143 37.449143 23.259428l4.608 3.291429a149.065143 149.065143 0 0 1 8.411428 5.851428l3.291429 2.340572a26.843429 26.843429 0 0 1 0.731428 0.512c7.094857 5.12 19.017143 13.531429 30.354286 20.845714 13.092571 8.338286 19.456 11.337143 21.942857 12.361143l170.349715-9.069714c2.340571-0.877714 4.754286-2.852571 5.632-7.241143a18.285714 18.285714 0 0 0 0.073142-0.292572v-0.073142a45.421714 45.421714 0 0 0 0.219429-13.165715l-1.170286-0.073143a1162.605714 1162.605714 0 0 1-91.282285-8.996571c-50.102857-7.094857-66.340571-13.897143-74.825143-19.017143a627.565714 627.565714 0 0 1-57.344-38.546286l-1.828572-1.462857-0.658285-0.438857c-43.154286-30.646857-74.386286-52.662857-154.185143-52.662857-20.406857 0-38.765714 4.973714-62.464 12.214857l-1.389715 0.585143a27.574857 27.574857 0 0 1-2.194285 0.731429l-2.486857 0.731428c-21.577143 6.582857-43.885714 13.238857-70.656 13.238857a28.745143 28.745143 0 0 0-28.379429 28.379429v129.536c0 15.36 13.019429 28.306286 28.379429 28.306286 33.133714 0 124.196571 1.536 147.602285 8.557714l0.658286 0.219428c35.474286 11.629714 113.590857 58.441143 130.925714 69.412572a34.889143 34.889143 0 0 1 0.731429 0.438857z" fill="#666666" p-id="6492"></path></svg>