<?xml version="1.0" standalone="no"?><!DOCTYPE svg PUBLIC "-//W3C//DTD SVG 1.1//EN" "http://www.w3.org/Graphics/SVG/1.1/DTD/svg11.dtd"><svg t="1772184384237" class="icon" viewBox="0 0 1024 1024" version="1.1" xmlns="http://www.w3.org/2000/svg" p-id="22723" xmlns:xlink="http://www.w3.org/1999/xlink" width="200" height="200"><path d="M824.32 178.176c-5.12 2.048-12.8 5.12-23.04 8.192-10.24 3.584-22.016 6.656-34.816 10.24s-28.672 6.144-47.104 8.192c-18.432 2.048-36.864 3.584-55.808 3.584-11.776 0-42.496-2.56-59.904-7.168-40.96-11.264-61.952-16.896-61.952-16.896l-59.392-19.968c-19.968-6.656-40.448-12.288-61.952-16.896-20.992-4.096-41.472-6.144-59.904-6.144-18.944 0-37.888 1.024-56.32 3.584-18.432 2.56-34.304 5.12-46.592 8.192-11.776 2.56-23.552 6.144-35.328 10.24-11.264 4.096-18.944 6.656-22.016 8.192-3.584 1.536-6.144 2.56-7.68 3.584v673.792c0 9.216 3.072 17.408 9.728 24.064 6.656 6.656 14.336 9.728 23.552 9.728 9.216 0 17.408-3.072 23.552-9.728 6.656-6.656 9.728-14.336 9.728-24.064V624.64c33.792-7.68 67.584-11.264 100.864-11.264 28.672 0.512 50.176 4.608 59.904 7.168l61.952 16.896 59.392 19.456c20.48 6.656 40.96 12.288 61.952 16.896 21.504 4.608 41.472 7.168 59.904 7.168 18.944 0 37.888-1.024 56.32-3.584 18.944-2.56 34.304-5.12 46.592-8.192 11.776-2.56 23.552-6.144 35.328-10.24 11.264-4.096 18.944-6.656 22.016-8.192 3.584-1.536 6.144-2.56 7.68-3.584V175.104l-6.656 3.072z" p-id="22724"></path></svg>