<?xml version="1.0" standalone="no"?><!DOCTYPE svg PUBLIC "-//W3C//DTD SVG 1.1//EN" "http://www.w3.org/Graphics/SVG/1.1/DTD/svg11.dtd"><svg t="1772184403192" class="icon" viewBox="0 0 1024 1024" version="1.1" xmlns="http://www.w3.org/2000/svg" p-id="23881" xmlns:xlink="http://www.w3.org/1999/xlink" width="200" height="200"><path d="M878.7 242.7h-95.3L605.3 84.3c-53.1-47.3-133.5-47.5-186.8-0.4l-180 158.8h-93.1C65.2 242.7 0 307.8 0 388v442c0 80.2 65.2 145.3 145.3 145.3h733.3c80.2 0 145.3-65.2 145.3-145.3V388c0.1-80.2-65.1-145.3-145.2-145.3zM462.8 134.2c28-24.7 70-24.5 97.9 0.2l121.7 108.3H339.9l122.9-108.5zM956.9 830c0 43.2-35.1 78.3-78.3 78.3H145.3c-43.2 0-78.3-35.1-78.3-78.3V388c0-43.2 35.1-78.3 78.3-78.3h733.3c43.2 0 78.3 35.1 78.3 78.3v442z m0 0" fill="#515151" p-id="23882"></path><path d="M512.5 800.9c-15.9 0-31.9-6.1-44-18.2L352.2 666.3c-48.5-48.5-48.5-127.4 0-176 43.6-43.6 111.8-48 160.4-13.2 48.6-34.8 116.8-30.4 160.4 13.2 48.5 48.5 48.5 127.4 0 176L556.6 782.6c-12.2 12.2-28.1 18.3-44.1 18.3zM440.1 521c-15.3 0-29.7 6-40.5 16.8-22.4 22.4-22.4 58.8 0 81.1l113 113 113-113c22.4-22.4 22.4-58.7 0-81.1-22.4-22.4-58.8-22.4-81.1 0-8.4 8.5-19.9 13.2-31.9 13.2s-23.4-4.7-31.9-13.2C469.9 527 455.5 521 440.1 521z m0 0" fill="#515151" p-id="23883"></path></svg>